<mxfile host="app.diagrams.net" modified="2021-10-31T18:50:52.413Z" agent="5.0 (Macintosh; Intel Mac OS X 10_15_7) AppleWebKit/537.36 (KHTML, like Gecko) Chrome/95.0.4638.54 Safari/537.36" etag="ts1eux9JAvfR98MprCBJ" version="15.6.3" type="github">
  <diagram id="3oQ5I_0IWnU9fwuhZsoW" name="Page-1">
    <mxGraphModel dx="1042" dy="606" grid="1" gridSize="10" guides="1" tooltips="1" connect="1" arrows="1" fold="1" page="1" pageScale="1" pageWidth="850" pageHeight="1100" math="0" shadow="0">
      <root>
        <mxCell id="0" />
        <mxCell id="1" parent="0" />
        <mxCell id="atGqFEt_qhC_FrXTUNtI-5" value="" style="rounded=1;whiteSpace=wrap;html=1;fillColor=none;dashed=1;" vertex="1" parent="1">
          <mxGeometry x="60" y="240" width="390" height="280" as="geometry" />
        </mxCell>
        <mxCell id="atGqFEt_qhC_FrXTUNtI-48" value="" style="rounded=1;whiteSpace=wrap;html=1;fillColor=none;" vertex="1" parent="1">
          <mxGeometry y="70" width="680" height="540" as="geometry" />
        </mxCell>
        <mxCell id="atGqFEt_qhC_FrXTUNtI-2" value="" style="rounded=1;whiteSpace=wrap;html=1;fillColor=none;" vertex="1" parent="1">
          <mxGeometry x="45" y="110" width="435" height="460" as="geometry" />
        </mxCell>
        <mxCell id="atGqFEt_qhC_FrXTUNtI-1" value="EB" style="outlineConnect=0;dashed=0;verticalLabelPosition=bottom;verticalAlign=top;align=center;html=1;shape=mxgraph.aws3.elastic_beanstalk;fillColor=#F58534;gradientColor=none;" vertex="1" parent="1">
          <mxGeometry x="45" y="90" width="57.5" height="73" as="geometry" />
        </mxCell>
        <mxCell id="atGqFEt_qhC_FrXTUNtI-4" value="" style="endArrow=classic;html=1;rounded=0;exitX=0.5;exitY=1;exitDx=0;exitDy=0;exitPerimeter=0;entryX=0.5;entryY=0;entryDx=0;entryDy=0;" edge="1" parent="1" source="atGqFEt_qhC_FrXTUNtI-3" target="atGqFEt_qhC_FrXTUNtI-10">
          <mxGeometry width="50" height="50" relative="1" as="geometry">
            <mxPoint x="400" y="300" as="sourcePoint" />
            <mxPoint x="290" y="240" as="targetPoint" />
            <Array as="points">
              <mxPoint x="255" y="230" />
              <mxPoint x="214" y="230" />
            </Array>
          </mxGeometry>
        </mxCell>
        <mxCell id="atGqFEt_qhC_FrXTUNtI-6" value="" style="rounded=1;whiteSpace=wrap;html=1;fillColor=none;" vertex="1" parent="1">
          <mxGeometry x="80" y="273" width="270" height="190" as="geometry" />
        </mxCell>
        <mxCell id="atGqFEt_qhC_FrXTUNtI-3" value="&amp;nbsp; Load Balancing" style="outlineConnect=0;dashed=0;verticalLabelPosition=bottom;verticalAlign=top;align=center;html=1;shape=mxgraph.aws3.elastic_load_balancing;fillColor=#F58536;gradientColor=none;" vertex="1" parent="1">
          <mxGeometry x="226.20999999999998" y="120" width="57.58" height="70" as="geometry" />
        </mxCell>
        <mxCell id="atGqFEt_qhC_FrXTUNtI-31" value="" style="endArrow=classic;html=1;rounded=0;entryX=0.5;entryY=0;entryDx=0;entryDy=0;entryPerimeter=0;startArrow=none;" edge="1" parent="1" target="atGqFEt_qhC_FrXTUNtI-30">
          <mxGeometry width="50" height="50" relative="1" as="geometry">
            <mxPoint x="290" y="230" as="sourcePoint" />
            <mxPoint x="450" y="330" as="targetPoint" />
            <Array as="points">
              <mxPoint x="250" y="230" />
              <mxPoint x="290" y="230" />
              <mxPoint x="405" y="230" />
              <mxPoint x="405" y="240" />
            </Array>
          </mxGeometry>
        </mxCell>
        <mxCell id="atGqFEt_qhC_FrXTUNtI-34" value="Auto Scaling Group" style="sketch=0;outlineConnect=0;fontColor=#232F3E;gradientColor=none;fillColor=#FF9900;strokeColor=none;dashed=0;verticalLabelPosition=bottom;verticalAlign=top;align=center;html=1;fontSize=12;fontStyle=0;aspect=fixed;pointerEvents=1;shape=mxgraph.aws4.auto_scaling2;" vertex="1" parent="1">
          <mxGeometry x="380" y="472" width="48" height="48" as="geometry" />
        </mxCell>
        <mxCell id="atGqFEt_qhC_FrXTUNtI-46" value="" style="group" vertex="1" connectable="0" parent="1">
          <mxGeometry x="490" y="262.5" width="170" height="110" as="geometry" />
        </mxCell>
        <mxCell id="atGqFEt_qhC_FrXTUNtI-38" value="" style="rounded=1;whiteSpace=wrap;html=1;fillColor=none;" vertex="1" parent="atGqFEt_qhC_FrXTUNtI-46">
          <mxGeometry x="10" y="30" width="160" height="80" as="geometry" />
        </mxCell>
        <mxCell id="atGqFEt_qhC_FrXTUNtI-39" value="Cache" style="outlineConnect=0;dashed=0;verticalLabelPosition=bottom;verticalAlign=top;align=center;html=1;shape=mxgraph.aws3.elasticache;fillColor=#2E73B8;gradientColor=none;" vertex="1" parent="atGqFEt_qhC_FrXTUNtI-46">
          <mxGeometry width="34.44" height="45" as="geometry" />
        </mxCell>
        <mxCell id="atGqFEt_qhC_FrXTUNtI-40" value="" style="outlineConnect=0;dashed=0;verticalLabelPosition=bottom;verticalAlign=top;align=center;html=1;shape=mxgraph.aws3.cache_node;fillColor=#2E73B8;gradientColor=none;" vertex="1" parent="atGqFEt_qhC_FrXTUNtI-46">
          <mxGeometry x="34.440000000000055" y="49" width="38.09" height="40" as="geometry" />
        </mxCell>
        <mxCell id="atGqFEt_qhC_FrXTUNtI-41" value="" style="outlineConnect=0;dashed=0;verticalLabelPosition=bottom;verticalAlign=top;align=center;html=1;shape=mxgraph.aws3.cache_node;fillColor=#2E73B8;gradientColor=none;" vertex="1" parent="atGqFEt_qhC_FrXTUNtI-46">
          <mxGeometry x="110" y="49" width="40" height="40" as="geometry" />
        </mxCell>
        <mxCell id="atGqFEt_qhC_FrXTUNtI-47" value="" style="group" vertex="1" connectable="0" parent="1">
          <mxGeometry x="500" y="390" width="105" height="120" as="geometry" />
        </mxCell>
        <mxCell id="atGqFEt_qhC_FrXTUNtI-36" value="" style="rounded=1;whiteSpace=wrap;html=1;fillColor=none;" vertex="1" parent="atGqFEt_qhC_FrXTUNtI-47">
          <mxGeometry x="15" y="30" width="90" height="90" as="geometry" />
        </mxCell>
        <mxCell id="atGqFEt_qhC_FrXTUNtI-37" value="RDS" style="outlineConnect=0;dashed=0;verticalLabelPosition=bottom;verticalAlign=top;align=center;html=1;shape=mxgraph.aws3.rds;fillColor=#2E73B8;gradientColor=none;" vertex="1" parent="atGqFEt_qhC_FrXTUNtI-47">
          <mxGeometry width="34.58" height="40" as="geometry" />
        </mxCell>
        <mxCell id="atGqFEt_qhC_FrXTUNtI-42" value="" style="outlineConnect=0;dashed=0;verticalLabelPosition=bottom;verticalAlign=top;align=center;html=1;shape=mxgraph.aws3.rds_db_instance;fillColor=#2E73B8;gradientColor=none;" vertex="1" parent="atGqFEt_qhC_FrXTUNtI-47">
          <mxGeometry x="40.03" y="50" width="39.97" height="50" as="geometry" />
        </mxCell>
        <mxCell id="atGqFEt_qhC_FrXTUNtI-49" value="" style="outlineConnect=0;dashed=0;verticalLabelPosition=bottom;verticalAlign=top;align=center;html=1;shape=mxgraph.aws3.virtual_private_cloud;fillColor=#F58534;gradientColor=none;" vertex="1" parent="1">
          <mxGeometry x="600.5" y="56" width="79.5" height="54" as="geometry" />
        </mxCell>
        <mxCell id="atGqFEt_qhC_FrXTUNtI-10" value="" style="rounded=0;whiteSpace=wrap;html=1;fillColor=none;" vertex="1" parent="1">
          <mxGeometry x="174.22" y="290" width="80" height="40" as="geometry" />
        </mxCell>
        <mxCell id="atGqFEt_qhC_FrXTUNtI-16" value="" style="shape=image;html=1;verticalAlign=top;verticalLabelPosition=bottom;labelBackgroundColor=#ffffff;imageAspect=0;aspect=fixed;image=https://cdn4.iconfinder.com/data/icons/logos-and-brands/512/97_Docker_logo_logos-128.png;fillColor=none;" vertex="1" parent="1">
          <mxGeometry x="164.22" y="270" width="30" height="30" as="geometry" />
        </mxCell>
        <mxCell id="atGqFEt_qhC_FrXTUNtI-21" value="" style="shape=image;html=1;verticalAlign=top;verticalLabelPosition=bottom;labelBackgroundColor=#ffffff;imageAspect=0;aspect=fixed;image=https://cdn4.iconfinder.com/data/icons/logos-and-brands/512/97_Docker_logo_logos-128.png;fillColor=none;" vertex="1" parent="1">
          <mxGeometry x="90" y="360" width="30" height="30" as="geometry" />
        </mxCell>
        <mxCell id="atGqFEt_qhC_FrXTUNtI-28" value="" style="group" vertex="1" connectable="0" parent="1">
          <mxGeometry x="104.22" y="295" width="345.78" height="380" as="geometry" />
        </mxCell>
        <mxCell id="atGqFEt_qhC_FrXTUNtI-15" value="" style="shape=image;html=1;verticalAlign=top;verticalLabelPosition=bottom;labelBackgroundColor=#ffffff;imageAspect=0;aspect=fixed;image=https://cdn4.iconfinder.com/data/icons/logos-brands-5/24/nginx-128.png;fillColor=none;" vertex="1" parent="atGqFEt_qhC_FrXTUNtI-28">
          <mxGeometry x="95" width="30" height="30" as="geometry" />
        </mxCell>
        <mxCell id="atGqFEt_qhC_FrXTUNtI-18" value="" style="rounded=0;whiteSpace=wrap;html=1;fillColor=none;" vertex="1" parent="atGqFEt_qhC_FrXTUNtI-28">
          <mxGeometry y="85" width="81.55" height="60" as="geometry" />
        </mxCell>
        <mxCell id="atGqFEt_qhC_FrXTUNtI-19" value="" style="rounded=0;whiteSpace=wrap;html=1;fillColor=none;" vertex="1" parent="atGqFEt_qhC_FrXTUNtI-28">
          <mxGeometry x="138.79" y="85" width="81.21" height="60" as="geometry" />
        </mxCell>
        <mxCell id="atGqFEt_qhC_FrXTUNtI-20" value="" style="shape=image;html=1;verticalAlign=top;verticalLabelPosition=bottom;labelBackgroundColor=#ffffff;imageAspect=0;aspect=fixed;image=https://cdn0.iconfinder.com/data/icons/logos-brands-in-colors/128/react-128.png;fillColor=none;" vertex="1" parent="atGqFEt_qhC_FrXTUNtI-28">
          <mxGeometry x="15.780000000000001" y="90" width="50" height="50" as="geometry" />
        </mxCell>
        <mxCell id="atGqFEt_qhC_FrXTUNtI-22" value="" style="shape=image;html=1;verticalAlign=top;verticalLabelPosition=bottom;labelBackgroundColor=#ffffff;imageAspect=0;aspect=fixed;image=https://cdn4.iconfinder.com/data/icons/logos-and-brands/512/97_Docker_logo_logos-128.png;fillColor=none;" vertex="1" parent="atGqFEt_qhC_FrXTUNtI-28">
          <mxGeometry x="125" y="65" width="30" height="30" as="geometry" />
        </mxCell>
        <mxCell id="atGqFEt_qhC_FrXTUNtI-23" value="" style="shape=image;verticalLabelPosition=bottom;labelBackgroundColor=#ffffff;verticalAlign=top;aspect=fixed;imageAspect=0;image=data:image/png,iVBORw0KGgoAAAANSUhEUgAAAQAAAAEACAYAAABccqhmAAAABGdBTUEAALGPC/xhBQAAACBjSFJNAAB6JgAAgIQAAPoAAACA6AAAdTAAAOpgAAA6mAAAF3CculE8AAARRElEQVR42u3dfZBcVZnH8Z5MZqafniQkSCSJSfrpSUKAmX56JmEDWUEBYVnedqUUihcjiCi1ukIwSzDgLqKbAqJGNBJgFakoS+RFJQuIYKEIG3lRkAQIhYggECVRUNYsb3mZ/SNPlhinZ7rPud19Z+b7qbpFKcW555577m9u33vOuZkMAAAAAAAAAAAAAAAAAAAAAAAAAAAAAAAAAAAAAAAAAAAAAAAAAAAAAAAAAAAAAAAAAAAAAAAAAAAAAAAAAAAAAAAAAAAAAAAAAAAAAAAAAAAAAAAAAAAAAAAAAAAAAAAAAAAAAAAAAAAAAAAAAAAAAAAAAAAAAAAAAAAAEEZMTxfTCwO2yQOUe4CYnhWwzeGsAPULgP8W096Abe4A5V4UWO6nOSsAAQCAAABAAAAgAAAQAAAIAAAEAAACAAABAIAAAEAAACAAANQ3AM4V0/UB29mcFWCQBwAAAgAAAQCAAABAAAAgAIDBcY0UtV2KhbfnioWJ2aKOzxY1m8JKFlrEdH8x/biYXi6mt4vpI2L6rJi+KKYbxPR5MX1UTO8Q06+I6TwxXTMUAyBX0lYxnSWmp4npv4vpf4rpXX68z/grx41i+jsx/ZWYPiimN4vp58X0FDHN16Oe2e58Vky7xPRYXxR1iZiuENMfiOl9YrrOz+GO+m4Q0+f8/79HTFf68Z0oJS2k8gLqyreJqYnp+8R0gZguFdNrxfT7YnqvmD7k5+Ux77MP+R+mO8X0RjG9yo/xn8X0ODGdJSUdl3g9SzpaTI8R08ViepuYPiWmr5bp///j9b1JTM8X04NaOwst9f7rLWJ6kph+T0z/HHgh99ZoHMAiMX05YFsQdMF3FprF9N1+8laL6RsJHOMaMf2kFAu7JRRKk8T0H3xV5Zu9g21J+Lw8I6aXiemshl3w249znph+TUzXiunmGvXB3/u5/pqYni2mh2arDAbpntoipieI6a1i+npkff4opt8Q03fW+MIvvF1ML/Ud9jZoa/xIwJkzm8T0IO8Av6/hsf5BTD9azTkaN7ujSazQ6XdkK/2veL3P0U9q3hnfuugni+lCMf2ZmG5rYL/cJqbnVHANtfi5eb5G9bhfTA9L9ra2WGj1241NDWzghgeAmI7xxP9lnY/5OilpSwX16/Bb9d4UbNvE9AopTZUa3YUe5HczW1JyvP8rpuMHqPOB/hOqHvW5SUz3TKKhu/z3e29KtoYEQLZHR4npKw087hUVnqvelG33i+nuCV74s/2ZStqO87Kyf0B7pozwn1/1DqsXxfRdMY39Pk+23mEfAN06NgXHfsIgDIAdIRB1JyDFwmh/yLw1hcf3hphO6bPfFPOtYvrtBtfthJCL/4yUNvZwDoAnMvtPbxqEAdArpldF/CHqbsDPrmq2q/u++Asj/UF5o+u3RUyPq6bBT0rpxT/cA6BXTPcfpAGwLeTBoJi+NyXPnspfXEXdq0zdl6eonq9W9IZGTP8mgdcSBEDttkWDNAB6xfT2Ki/+k2r4Ki+p7foydf9ACuv6lHTl2/tr8FFi+nTKG3y4B8DKQRwAW8X0HRVe/H8/CC7+bWLa00fdJzX4VXl/29L+Gv1LKW/wxgVAKR8aAH8S0yfF9Bdi+oC/UYl5m3DfIA6AXjE9vYIhsNO93dJ+LN8vcx6+meI6vymm0/uodH4v/5dJ7OQ3Pqx0oY/MOt6HuZ7jwyvXDcEA2OpDSZf5Mc/KFnVUX2WNsmlN/k445PXqr2sYAM+L6XfF9LNieqaYnujn7jRv17sTeDb0H/2OOenqaPagTKrD/87HC1zq/e9jvv0ioKzXfZzFjmcSB/ZxDjoTaKOXfMj8e8W0lDXdR0wPFtPzxPTxBNrkmr46z4oECr5TTA8eN7ujqYJbvNVDIADeENNVfsGPD3jANS2gs7xUgwB4RkxnVFjnWZFP5O8doPyzEuiHf/Jx/z2Zzs6mMvu5MaDc1ZlMJtNamtIsVvbB3zWRdb9STHcrP79h2ggPsNci9vH6X/RXMZ0QOYb9VTE9NQ2zAesUAOu2d9R89MQQH5dfTT1fq0EArKmyznmflBJ0dzjASMuXIn+TL5dS/m0VHMPKgPJ/OkCZY/uZxFPJdkEV5+DvIu/Yz965sAWRAw0OC+j4gzEAVovpUeX+qgQGwEPVdvJGB4Dva0ngvjb1U+Z5Ef1wk5geXUX9Q36nPzxAmR+KqP93As7BokTuxHykVnySDOEAqOHMyp9XW9dMcWpTCgLgnaF9prWn46/mNbR1Thvhz45Cytxc7R8hMb06YD/rBigzdNDPa2I6ufo5OtoS8dZuc87yu2XECm+LeGjxSLZbRxAA9Q6Amc0ND4CijgoNgFxJR/dR90Mi/ghdFNDuVyb5ALbNCiMi3lxcE9F/zolotyMyPk88tIBTIio+rAIgV9ScPyE+1qeDLvY53FW/L850djY8AHx/oWtBjOujrC+HTnjJWT4XUPdlAfta38+05Jg3MIeH9qus5SdFTINelBHTzwRPfyzlhQDoc873ODE90l+nrRLTXyc5Vz1FAbAxaH+l/B59lPVYYN0XB9b9spDXc/2Ud3L4E/lCW+RdZGjbrchEzFT6YWSlh1QA+Ouxi3xhiprOo0hRAGxIIgDE8rtFtNl+gXX/QsIPMEP/kP48gZ+RoQOP7s74+m8h//GS4R4AUtKcrxe3tp6juYZeAOjfBt+Fdk9pDqz7JSEP6/op7+tJD+2u4lj+LXh2qS9MGfIff3y4BkCuu6PZL/yN9bzwh3AAhE6cWRvR/xaHDKPtp7xVSS8kUsWxfDRw37/NRCwhdcpwDAAfvfdAIy78IRwAC+v9MzSwn2ztp7wfBR7D5xIIgNDnDy9lfEXcxFenGYoBIJafGzlSjQDoOwAuDqz3LfW+bc5Mn15uDMa9gcfwmQQC4ITQRWczEavanjqcAsDXl3+l0Rf/EA2A0FmoP4jof+eH7DPbUxhZpryfBB7DxQkEwLzAfb+QiVg2euFwCYDs9od9qVmSaggGwGWB9X4wov+dG1b3vl/Z+QdVgib/JBAAZwfu+/GMmD6c5DpoQzEAfEXXJNdne9p/M67w6dHDPQAuCaz3xnqPoMsWNVemvOsCj+G2BALg84H7visjprcEv0IYBgGQLeUl4jnJjq/IfEtMPyKmPVLUtl3quw8BEDUJaGpg3T8Rtr/C2DLlfTF0KnYCAXBb8B/xyFWA9k5hAHw2yQAQ0/cHlrdOTI/Plaa2DFBfAiD8N2xvtV9O2mmf/xQYABPKlPexiGOYGHod+RyEPwTu99yMmJ4eUfFlKQyAzyUcACGTRlblSvlshe1AAJjOrcUSabV5d17QMuW9K+IYPhJxHR0Ysd/3BHXAXVYW2TdlAbA44QCodqTky/2t6NJH+fsSAIXRkcOnj6lbABT7vuvNbp8dGbqI6QMRAfCN0LUBty9Z19nZFPmhwkdzVXT4OgTAxQkHwPoqy7mhynYY9gHgZT0S0QdfEMtPqNPouZ5+yvxpxDEcXXX7F3VGxEpeP9654ssin2w/VO3DmBoGwKUJB0C1H6X4KgEQFABLIvvgY2Kar8MdwAH9lBmzQs+zUtQ9Kh6OXupoEdN7Ivb3iZ0rPjuB11t/FNMFUsqPaXAALE1yPbaAAPguARAUAPsn1Afni/Xz8YtMJtNmOjL4YXGxfP/zrzPHTPt+UCw/voK//G1ien3MT/ec7RI2EUMZd93+LKbfEdNPiukxYjonZ/mSh8zBPmxxQcTPjoEC4PIkv7gT0Mk3iekkAqC6APDyHk+oD27yyTkX+uvXU30RliU+YCd8RGdxwP53R2Td14vpB6Wvt0ezJzWJ6eGRP5fKLgt+SEKN3+gPg4ROy1xYpryQxl7b32/FHVqLOkJM30MA/H95Z6S+/w0cAIcmtK+XfYzOMh8peb2YPpfQQLSZ5Sp/wxAIgGsDy/2XMuXdFPm79Fr/yMNSMf2q/+87xPSJ0LXdh3AAtAQsk56qAPDjuDPFx7C8v4qPD3jqnbYA+K/AcueXKW9B2tpgqAaAl3lkyvvfnAraZe/ID3fUantBSjp2oMrPTWnlKw2A0FlZZ5Ypb3qS6/kRAP0HgJd7VYr73+waT9Cp1bZFTA+t9MQeleIQGCgA1gSWO6+GD3YIgCoCIGv5bMSn42q9dVfRPt9KUb3PqvbkHhwxxriRARC6wtH7+ylzdpo+VT3UA8BHB+4e8NWkemxdlbZPtlRoFdNbU1DnC0OHGU71L8IOigDIWkdrxJDSwwZoi0UEQP0CIPPWtwJvT9lDwGnVtFG2qK0RD6aTuO0/KxOjvavQ5N88W5/2APCBGKHl9lTQIS8mAOoXADu9Kv1Uin6STqi6oba/v59f52N4QUwPySQl21XI+pTHdSkOgKNqPa/cBzJtIADqEwC7PIz9dq2/uTDQlisVxoReQz7o664a1/FNf+08NlMrYjrHx9w/WuMn5K/5Q72VYnqBmB4rRW3vp17nB+5nW1up8q+z+K3ppyI+zBi6bRDT+zLFvUYMtwDYJQguEdNnAo/1Kf85d0HIqsCtXTOaE7h+DhfTHyZ87WzyqevTMvUkpnuI6dF+8a3wCQpP+3DLcge41b8v/5yPtLvDv26yWEzP9AYqtHRrc5V1CX3g8tuIn0f7+bHf7Me9OSCxN/jAoHt9GPVyMf1XMf2wmB6RNd03262jKjj+Pf3iqHabH3juPx2yv2xpansyfS+/j7fRV3xVnIf9Oxe/8XOxxi+0q/zutXOnus8PWkY72Wtnmved1d4PQuY+fE9MTwuZkVv7cOh6x4hcMd+eLXaMzRY7xuWK+dG5YmULZVQrZ5qN+FjlPUnVo71LR4rpRLFCl09wOUhM3+2f057jqwvPENMJUsq3Z9CYvhk2GeiJGtan3b+QdIb/IbxaTG/0gW2r/OfPcg/dE8W0c5RNaeZMvtWAx9VkeCSGan8JWUjjLlouvSc05nXRh2nBYddfHqz3Stio3cnsjnygsjetOIz6SzE/OvA393m0XjoDIGao7rO04LDrL6fUa9ku1P5kzot8fbKUVhxG5k5uCv24azZkEBBqevEX/XViTAAYLTms+swHA/vJk7Reuk7kDB/uGHPx/5iWTM35PFlMP5Tr0pYa7qMn4g/GlzlL6eksB4jpiwmMnjqU1kzNOd0xivN5/3T35ITL/0cfOBPaVw7kLDXYqNLUZl+h540ELv7baNFUBsDOo0Xv9oU1gt7SjOmc3OQDsW6J7CtPjJvd0cRZamwH6RbT+xOcYzCTVk11APzVl4B9qPelPvz3SLH8fmK6b9Z0upR0Hx9peYwP812R0CKaUZ/uQnzHmOzDIrckOHFiPi2buvN8QcrWndix/VIs38IZqrO2Lm31JZFfT/iEXpexPbmdIwAqmiUqpkdwdhrXKTrE9IoEF1K4XUzbaFkCoMLtSs5MGjpHUSf6b7+Yd/43iBW4+AmASref5aw2M1cR3EkK43w65MYqTuRmMT1/lE3jtp8AqHT7lZhO5KyktbOU8u3+pHegp7yPi+n+tBgBUM0rPzGdwhkZBLLFQquYni6mT+5yEl8R03NzVuDpLQFQ1TOinOnunI1BZpRNaxbT432cwJfEdDytQgBUuZ7eOdLZMYIzAQyfANjsA4a45QcaHABjxPQ0X8TzzTqsrvwFMe2g5YHUhUF+rH9/4QoxXZvAKNDNvmLwF8X0MCkWRtLKwOAJhHZffv1k/x7DMv/c1i1ieqeY/sj/eauYXieml/vcgg+I6X65kuZoRQAAAAAAAAAAAAAAAAAAAAAAAAAAAAAAAAAAAAAAAAAAAAAAAAAAAAAAAAAAAAAAAAAAAAAAAAAAAAAAAAAAAAAAAAAAAAAAAAAAAAAAAAAAAAAAAAAAAAAAAAAAAAAAAAAAAAAAAAAAAAAAAAAAAAAAAAAAAAAAAAAAAAxR/weGZ8aZ7U+awwAAAABJRU5ErkJggg==;" vertex="1" parent="atGqFEt_qhC_FrXTUNtI-28">
          <mxGeometry x="150" y="85" width="60" height="60" as="geometry" />
        </mxCell>
        <mxCell id="atGqFEt_qhC_FrXTUNtI-27" value="" style="endArrow=classic;html=1;rounded=0;entryX=0.5;entryY=0;entryDx=0;entryDy=0;exitX=0.25;exitY=1;exitDx=0;exitDy=0;" edge="1" parent="atGqFEt_qhC_FrXTUNtI-28" source="atGqFEt_qhC_FrXTUNtI-10">
          <mxGeometry width="50" height="50" relative="1" as="geometry">
            <mxPoint x="-34.22" y="35" as="sourcePoint" />
            <mxPoint x="35.78" y="85" as="targetPoint" />
            <Array as="points">
              <mxPoint x="90" y="55" />
              <mxPoint x="35.78" y="55" />
            </Array>
          </mxGeometry>
        </mxCell>
        <mxCell id="atGqFEt_qhC_FrXTUNtI-26" value="" style="endArrow=classic;html=1;rounded=0;entryX=0.5;entryY=0;entryDx=0;entryDy=0;exitX=0.75;exitY=1;exitDx=0;exitDy=0;" edge="1" parent="1" source="atGqFEt_qhC_FrXTUNtI-10" target="atGqFEt_qhC_FrXTUNtI-23">
          <mxGeometry x="90" y="270" width="50" height="50" as="geometry">
            <mxPoint x="490" y="600" as="sourcePoint" />
            <mxPoint x="540" y="550" as="targetPoint" />
            <Array as="points">
              <mxPoint x="234.22" y="350" />
              <mxPoint x="284.22" y="350" />
            </Array>
          </mxGeometry>
        </mxCell>
        <mxCell id="atGqFEt_qhC_FrXTUNtI-9" value="Instance 1" style="outlineConnect=0;dashed=0;verticalLabelPosition=bottom;verticalAlign=top;align=center;html=1;shape=mxgraph.aws3.instance;fillColor=#F58534;gradientColor=none;" vertex="1" parent="1">
          <mxGeometry x="73.27" y="257.5" width="30.95" height="32.5" as="geometry" />
        </mxCell>
        <mxCell id="atGqFEt_qhC_FrXTUNtI-30" value="Instance 2" style="outlineConnect=0;dashed=0;verticalLabelPosition=bottom;verticalAlign=top;align=center;html=1;shape=mxgraph.aws3.instance;fillColor=#F58534;gradientColor=none;" vertex="1" parent="1">
          <mxGeometry x="390" y="262.5" width="30" height="32.5" as="geometry" />
        </mxCell>
        <mxCell id="atGqFEt_qhC_FrXTUNtI-51" style="edgeStyle=orthogonalEdgeStyle;rounded=0;orthogonalLoop=1;jettySize=auto;html=1;exitX=1;exitY=0.5;exitDx=0;exitDy=0;entryX=0;entryY=0.5;entryDx=0;entryDy=0;" edge="1" parent="1" source="atGqFEt_qhC_FrXTUNtI-19" target="atGqFEt_qhC_FrXTUNtI-36">
          <mxGeometry relative="1" as="geometry" />
        </mxCell>
        <mxCell id="atGqFEt_qhC_FrXTUNtI-52" style="edgeStyle=orthogonalEdgeStyle;rounded=0;orthogonalLoop=1;jettySize=auto;html=1;exitX=1;exitY=0.25;exitDx=0;exitDy=0;entryX=0;entryY=0.75;entryDx=0;entryDy=0;" edge="1" parent="1" source="atGqFEt_qhC_FrXTUNtI-19" target="atGqFEt_qhC_FrXTUNtI-38">
          <mxGeometry relative="1" as="geometry" />
        </mxCell>
      </root>
    </mxGraphModel>
  </diagram>
</mxfile>
